<?xml version="1.0" encoding="utf-8"?>
<svg version="1.1" xmlns="http://www.w3.org/2000/svg" viewBox="0 0 60 60" fill="#FD7B00">
	<path d="M1.2,60h57.6v-2.4h-7.2V46.8h7.2c0.5,0,0.9-0.3,1.1-0.7s0.1-1-0.3-1.3l-8.4-8.4C51,36.1,50.7,36,50.4,36H9.6
			c-0.3,0-0.6,0.1-0.8,0.4l-8.4,8.4c-0.3,0.3-0.5,0.9-0.3,1.3c0.2,0.4,0.6,0.7,1.1,0.7h7.2v10.8H1.2 M31.7,44.4l-6-6h24.2l6,6H31.7
			z M10.1,38.4h9.8l-6,6H4.1L10.1,38.4z M10.8,46.8h3.6c0.3,0,0.6-0.1,0.8-0.4l6.4-6.4v17.5H10.8V46.8z M24,57.6V40.1l6.4,6.4
			c0.2,0.2,0.5,0.4,0.8,0.4h18v10.8H24z M30,0c-6,0-10.8,4.8-10.8,10.8S24,21.6,30,21.6s10.8-4.8,10.8-10.8C40.8,4.8,36,0,30,0
			 M30,19.2c-4.6,0-8.4-3.8-8.4-8.4s3.8-8.4,8.4-8.4s8.4,3.8,8.4,8.4C38.4,15.4,34.6,19.2,30,19.2 M49.2,13.2
			c-5.2,0-9.6,3.6-10.6,8.7c-1,5.1,1.7,10.1,6.5,12.1c4.8,2,10.3,0.3,13.1-4c2.9-4.3,2.3-10-1.3-13.6
			C54.8,14.3,52.1,13.2,49.2,13.2z M55.1,29.9c-2.8,2.8-7.3,3.3-10.6,1.1s-4.6-6.5-3.1-10.2s5.5-5.8,9.4-5s6.8,4.2,6.8,8.2
			C57.6,26.2,56.7,28.4,55.1,29.9 M10.8,13.2c-5.2,0-9.6,3.6-10.6,8.7S1.9,32,6.7,34s10.3,0.3,13.1-4s2.3-10-1.3-13.6
			C16.4,14.3,13.7,13.2,10.8,13.2 M16.7,29.9c-2.8,2.8-7.3,3.3-10.6,1S1.5,24.5,3,20.8s5.5-5.8,9.4-5s6.8,4.2,6.8,8.2
			C19.2,26.2,18.3,28.4,16.7,29.9"/>
    <polyline points="31.2,33.6 31.2,24 28.8,24 28.8,33.6"/>
    <path d="M38.4,28.8h-1.2c-2,0-3.6,1.6-3.6,3.6v1.2H36v-1.2c0-0.7,0.5-1.2,1.2-1.2h1.2 M21.6,31.2h1.2c0.7,0,1.2,0.5,1.2,1.2v1.2
			h2.4v-1.2c0-2-1.6-3.6-3.6-3.6h-1.2 M13.9,26.3l1.6,1.5c-1.1,1.3-2.7,2-4.4,1.9c-2.5,0.1-4.8-1.5-5.6-3.8H3.8v-1.3h1.5
			c0-0.3,0-0.6,0-0.8H3.8v-1.3h1.7c0.8-2.4,3.1-4,5.6-3.8c1.7-0.1,3.3,0.6,4.4,1.9L13.9,22c-0.7-0.8-1.7-1.3-2.7-1.3
			c-1.3,0-2.4,0.6-3,1.7h3.9v1.3H7.8c0,0.3,0,0.6,0,0.8h4.3v1.3H8.2c0.6,1.1,1.8,1.8,3,1.7C12.3,27.6,13.3,27.1,13.9,26.3
			 M52.6,26.3l1.6,1.5c-1.1,1.3-2.7,2-4.4,1.9c-2.5,0.1-4.8-1.5-5.6-3.8h-1.7v-1.3H44c0-0.3,0-0.6,0-0.8h-1.5v-1.3h1.7
			c0.8-2.4,3.1-4,5.6-3.8c1.7-0.1,3.3,0.6,4.4,1.9L52.6,22c-0.7-0.8-1.7-1.3-2.7-1.3c-1.3,0-2.4,0.6-3,1.7h3.9v1.3h-4.3
			c0,0.3,0,0.6,0,0.8h4.3v1.3h-3.9c0.6,1.1,1.8,1.8,3,1.7C51,27.6,52,27.1,52.6,26.3 M33.4,13.2l1.6,1.5c-1.1,1.3-2.7,2-4.4,1.9
			c-2.5,0.1-4.8-1.5-5.6-3.8h-1.7v-1.3h1.5c0-0.1,0-0.3,0-0.4c0-0.1,0-0.3,0-0.4h-1.5V9.3H25c0.8-2.4,3.1-4,5.6-3.8
			c1.7-0.1,3.3,0.6,4.4,1.9l-1.6,1.5c-0.7-0.8-1.7-1.3-2.7-1.3c-1.3,0-2.4,0.6-3,1.7h3.9v1.3h-4.3c0,0.1,0,0.3,0,0.4
			c0,0.1,0,0.3,0,0.4h4.3v1.3h-3.9c0.6,1.1,1.8,1.8,3,1.7C31.8,14.4,32.8,14,33.4,13.2"/>
</svg>
