<?xml version="1.0" encoding="utf-8"?>
<svg version="1.1" xmlns="http://www.w3.org/2000/svg" viewBox="0 0 64 60" fill="#FD7B00">
	<path d="M49.8,60c-7.7,0-13.9-6.2-13.9-13.9s6.2-13.9,13.9-13.9s13.9,6.2,13.9,13.9C63.8,53.8,57.5,60,49.8,60 M49.8,34.4
		c-4.7,0-9,2.9-10.8,7.2c-1.8,4.4-0.8,9.4,2.5,12.8s8.4,4.4,12.8,2.5s7.2-6.1,7.2-10.8C61.6,39.6,56.3,34.4,49.8,34.4"/>
	<path d="M49.8,54.7c-4.8,0-8.6-3.9-8.6-8.6h1.6c0,3.9,3.1,7,7,7s7-3.1,7-7h1.6C58.5,50.8,54.6,54.7,49.8,54.7 M3.3,29.9l-3,0.5
		c2,12.7,12.9,22.1,25.7,22.3c0.7,0,1.4,0,2-0.1l-0.2-3h-1.8C14.7,49.4,5.1,41.1,3.3,29.9L3.3,29.9z M31.3,52.1
		c1-0.2,2.1-0.5,3.1-0.9l-0.9-2.8c-0.9,0.3-1.8,0.5-2.7,0.7L31.3,52.1z M46.8,16c0.4,0.8,0.8,1.7,1.1,2.6l2.8-1l0,0
		c-0.3-1-0.7-2-1.2-3L46.8,16z M43.8,7c-0.8-0.7-1.6-1.4-2.5-2l-1.8,2.4c0.8,0.6,1.5,1.2,2.2,1.8L43.8,7z M4.5,18.1L1.7,17
		c-0.4,1-0.7,2-0.9,3l3,0.7C4,19.8,4.2,18.9,4.5,18.1L4.5,18.1z M43.7,11.3c0.6,0.7,1.2,1.5,1.7,2.3l2.5-1.6
		c-0.6-0.9-1.2-1.8-1.9-2.6L43.7,11.3z M51.9,30.2c0.1-1,0.2-2.1,0.3-3.1h-3c0,0.9-0.1,1.9-0.3,2.8L51.9,30.2z M15.5,5.6l-1.4-2.7
		c-0.9,0.5-1.8,1-2.7,1.6L13.1,7l0,0C13.9,6.5,14.7,6,15.5,5.6L15.5,5.6z M48.6,21.4c0.2,0.9,0.3,1.8,0.4,2.7l3-0.3
		c-0.1-1-0.3-2.1-0.5-3.1L48.6,21.4z M0,26.3h3c0-0.9,0.1-1.9,0.2-2.8l-3-0.3l0,0C0.1,24.2,0,25.2,0,26.3L0,26.3z M26.1,3h0.3V0
		h-0.3c-0.9,0-1.9,0-2.8,0.2l0.3,3C24.4,3.1,25.3,3,26.1,3L26.1,3z M10.9,8.8l-2-2.3C8.1,7.2,7.3,8,6.6,8.8l2.2,2
		C9.5,10.1,10.2,9.4,10.9,8.8 M38.7,3.3c-0.9-0.5-1.9-1-2.9-1.4l-1.1,2.8c0.9,0.4,1.7,0.8,2.5,1.2L38.7,3.3z M20.8,3.6l-0.7-2.9
		c-1,0.2-2,0.6-3,0.9l1.1,2.8C19,4.1,19.9,3.8,20.8,3.6L20.8,3.6z M5.7,15.4c0.5-0.8,1-1.6,1.5-2.4l-2.5-1.7
		C4.1,12.2,3.5,13.1,3,14L5.7,15.4z M32.8,0.9c-1-0.3-2.1-0.5-3.1-0.6l-0.4,3c0.9,0.1,1.9,0.3,2.8,0.6L32.8,0.9z M27.6,26.3V11.9
		h-3v12.9h-7.7v3h9.2C26.9,27.8,27.6,27.1,27.6,26.3L27.6,26.3z"/>
	<rect x="52.6" y="44" width="2.1" height="2.1"/>
	<rect x="45.1" y="44" width="2.1" height="2.1"/>
</svg>
