<?xml version="1.0" encoding="utf-8"?>
<svg version="1.1" xmlns="http://www.w3.org/2000/svg" viewBox="0 0 61 60" fill="#FD7B00">
	<path d="M56.7,19.7h-1.3v-0.2c0-6.3-4.8-11.6-11.1-12.1V1l0,0c0-0.3-0.1-0.5-0.3-0.7S43.5,0,43.2,0h-5.9v2.1h4.8v5.3
		c-6.3,0.5-11.1,5.8-11.1,12.1v0.2h-1.3v2.1h1.3l2,29.5h-6.3c0.3-1,0.4-2,0.4-3v-3l0,0c0-0.6-0.5-1-1-1H6.6c-0.6,0-1,0.5-1,1v3
		c0,1,0.1,2,0.4,3H1c-0.6,0-1,0.5-1,1V59c0,0.3,0.1,0.5,0.3,0.7C0.5,59.9,0.8,60,1,60h58c0.3,0,0.5-0.1,0.7-0.3
		c0.2-0.2,0.3-0.5,0.3-0.7v-6.7c0-0.6-0.5-1-1-1h-5.7l2-29.5h1.3 M42.2,9.5v10.2h-9.1v-0.2C33.1,14.3,37,10,42.2,9.5L42.2,9.5z
		 M44.3,9.5c5.2,0.5,9.1,4.9,9.1,10v0.2h-9.1V9.5z M33.2,21.8h9v7h-8.5L33.2,21.8z M44.3,21.8h9l-0.5,7h-8.5L44.3,21.8z M16.4,21.9
		c-6,0-10.9,4.9-10.9,10.9v3c0,0.3,0.1,0.5,0.3,0.7c0.2,0.2,0.5,0.3,0.7,0.3h19.7c0.3,0,0.5-0.1,0.7-0.3c0.2-0.2,0.3-0.5,0.3-0.7
		v-3C27.3,26.8,22.5,21.9,16.4,21.9L16.4,21.9z M16.4,23.9c2.3,0,4.6,0.9,6.3,2.6c1.7,1.7,2.6,3.9,2.6,6.3v2H7.6v-2
		c0-2.3,0.9-4.6,2.6-6.3S14.1,23.9,16.4,23.9L16.4,23.9z M33.8,30.9h18.8l-1.4,20.4h-16L33.8,30.9z M6.6,39.5L6.6,39.5
		c-0.6,0-1,0.5-1,1c0,0.6,0.5,1,1,1h19.7c0.6,0,1-0.5,1-1c0-0.6-0.5-1-1-1H6.6z M7.6,46.3h17.7v2c0,1-0.2,2.1-0.5,3H8.1
		c-0.4-1-0.5-2-0.5-3L7.6,46.3z M2.1,53.3H58v4.6H2.1V53.3z"/>
</svg>
