<?xml version="1.0" encoding="utf-8"?>
<svg version="1.1" xmlns="http://www.w3.org/2000/svg" viewBox="0 0 64 60" fill="#FD7B00">
	<path d="M50.8,47.2c-7.1,0-12.9-5.8-12.9-12.9s5.8-12.9,12.9-12.9s12.9,5.8,12.9,12.9C63.7,41.5,58,47.2,50.8,47.2 M50.8,23.5
		c-6,0-10.8,4.9-10.8,10.8s4.9,10.8,10.8,10.8s10.8-4.9,10.8-10.8C61.7,28.4,56.8,23.5,50.8,23.5 M33,25.8
		c-7.1,0-12.9-5.8-12.9-12.9S25.9,0,33,0s12.9,5.8,12.9,12.9C45.9,20,40.1,25.8,33,25.8 M33,2.1c-6,0-10.8,4.9-10.8,10.8
		S27,23.7,33,23.7s10.8-4.9,10.8-10.8C43.9,6.9,39,2.1,33,2.1"/>
	<rect x="32" y="5.2" width="2.1" height="15.3"/>
	<rect x="25.4" y="11.9" width="15.3" height="2.1"/>
	<path d="M48,58.9v-6.7c0-0.3-0.1-0.6-0.3-0.8s-0.5-0.3-0.8-0.3H31.7l1.4-1.4c0.2-0.2,0.3-0.5,0.3-0.8s-0.1-0.6-0.3-0.8L19.8,34.7
		c-0.2-0.2-0.5-0.3-0.8-0.3H2.2v-2.2H0v20.1h2.2V50h9.7l12,9.8c0.2,0.2,0.4,0.3,0.7,0.3h22.3c0.3,0,0.6-0.1,0.8-0.3
		C47.9,59.5,48,59.2,48,58.9L48,58.9z M25,57.8L13,48c-0.2-0.2-0.4-0.3-0.7-0.3h-10V36.6h16.3l12.3,12.3l-2.9,2.9L22,45.8
		l-1.6,1.6l6.7,6.7c0.2,0.2,0.5,0.3,0.8,0.3c0.3,0,0.6-0.1,0.8-0.3l0.8-0.8h16.3v4.5L25,57.8z M50.8,41.2l-5.8-5.8
		c-0.9-0.9-1.3-2.2-0.9-3.4c0.3-1.2,1.3-2.2,2.5-2.5c1.2-0.3,2.5,0,3.4,0.9l0.8,0.9l0.9-0.9c1.4-1.4,3.6-1.4,4.9,0s1.4,3.6,0,4.9
		L50.8,41.2z M47.5,31.6c-0.6,0-1.1,0.3-1.3,0.9C46,33,46.1,33.6,46.5,34l4.3,4.3l4.3-4.3c0.4-0.4,0.5-0.9,0.4-1.4
		c-0.1-0.5-0.5-0.9-1-1s-1,0-1.4,0.4l-2.3,2.3L48.5,32C48.3,31.7,47.9,31.5,47.5,31.6"/>
</svg>
