<?xml version="1.0" encoding="utf-8"?>
<svg version="1.1" xmlns="http://www.w3.org/2000/svg" viewBox="0 0 53 60" fill="#FD7B00">
    <g transform="translate(0 9.439)">
        <path d="M52.1,19.2V0.5H25.7v18.6h12.6v5H3.9v-18h5.9c-1.5,2.6-1,5.9,1.1,7.9l0.6,0.6L21,5.2l-0.6-0.6l0,0
			c-2.6-2.6-6.9-2.6-9.5,0l-0.3,0.4h-8v19.2H0.5V50h1.2V31.9H50V50h1.2V24.1H39.5v-5H52.1z M11.8,5.4c1-1,2.4-1.6,3.9-1.6
			c1.3,0,2.6,0.5,3.6,1.3L11.5,13C9.6,10.8,9.7,7.5,11.8,5.4L11.8,5.4z M50,30.7H1.7v-5.3H50V30.7z M26.9,1.7h24V18h-24V1.7z"/>
        <path d="M51.7,50.6h-2.3V32.4H2.3v18.2H0v-27h2.1V4.4h8.3l0.1-0.2c2.8-2.8,7.4-2.8,10.3,0l1,1L11.5,15.4l-1-1
			c-2.1-2-2.7-5.1-1.6-7.8H4.4v16.9h33.4v-3.9H25.2V0h27.4v19.7H40v3.9h11.7V50.6z M50.5,49.5h0.1V24.7H39v-6h12.6V1.1H26.2v17.6
			h12.6v6H3.3v-19h7.4l-0.4,0.8c-1.3,2.4-0.9,5.4,1.1,7.3l0.2,0.2l8.7-8.7L20.1,5c-2.4-2.4-6.3-2.4-8.8,0l-0.4,0.5H3.2v19.2H1.1
			v24.8h0.1V31.3h49.3V49.5z M50.5,31.2H1.2v-6.4h49.3V31.2z M2.3,30.1h47.2v-4.3H2.3V30.1z M51.4,18.5h-25V1.2h25V18.5z
			 M27.4,17.4h22.9V2.3H27.4V17.4z M11.5,13.8l-0.4-0.4c-2.1-2.4-2-6,0.3-8.3l0,0c1.1-1.1,2.7-1.7,4.2-1.7c1.5,0,2.9,0.5,4,1.5
			l0.4,0.4L11.5,13.8z M12.2,5.8c-1.7,1.7-2,4.4-0.6,6.4l6.9-7c-0.8-0.6-1.8-0.9-2.8-0.9C14.4,4.4,13.1,4.9,12.2,5.8"/>
    </g>
    <path d="M20.1,10.9l-5.4-5.4c-1.2-1.3-1.2-3.3,0.1-4.5s3.3-1.3,4.5-0.1l0.8,0.8l0.8-0.8c1.3-1.3,3.3-1.3,4.6,0s1.3,3.3,0,4.6
		L20.1,10.9z M17,1.9c-0.5,0-1,0.3-1.2,0.8c-0.2,0.5-0.1,1.1,0.3,1.4l4,4l4-4c0.5-0.5,0.5-1.4,0-1.9c-0.5-0.5-1.4-0.5-1.9,0
		l-2.2,2.2l-2.1-2.2C17.7,2.1,17.4,1.9,17,1.9"/>
</svg>
