<?xml version="1.0" encoding="utf-8"?>
<svg version="1.1" xmlns="http://www.w3.org/2000/svg" viewBox="0 0 60 60" fill="#FD7B00">
	<path d="M14.3,38.7l14.4,20.4V60h2.5v-0.9l14.4-20.4c8-0.4,14.3-7.5,14.3-16.2c0-9-6.7-16.2-15-16.2c-1,0-2,0.1-2.9,0.4
		C39.4,2.5,34.9,0.1,30,0c-4.9,0.1-9.4,2.5-12.1,6.6c-1-0.2-2-0.3-2.9-0.4c-8.3,0-15,7.3-15,16.3C0,31.2,6.4,38.3,14.3,38.7z
		 M17.3,38.5c4-0.7,7.5-3,9.7-6.4c0.6,0.1,1.2,0.2,1.7,0.3v22.4L17.3,38.5z M31.2,32.4c0.6,0,1.2-0.1,1.7-0.3
		c2.2,3.4,5.8,5.7,9.7,6.4L31.2,54.8L31.2,32.4z M43.4,8.9c0.5-0.1,1.1-0.1,1.6-0.1c6.9,0,12.5,6.2,12.5,13.8S51.9,36.3,45,36.3
		c-3.8,0-7.3-1.8-9.5-4.9c0,0,0,0,0,0c0.3-0.1,0.6-0.3,0.8-0.4c0.1-0.1,0.3-0.1,0.4-0.2c0.2-0.1,0.5-0.3,0.7-0.4
		c0.2-0.1,0.3-0.2,0.5-0.3c0.3-0.2,0.5-0.4,0.8-0.6c0.3-0.2,0.5-0.4,0.8-0.6c0.1-0.1,0.3-0.3,0.4-0.4c0.2-0.2,0.4-0.4,0.6-0.5
		c0.1-0.1,0.3-0.3,0.4-0.4c0.2-0.2,0.4-0.4,0.5-0.6c0.1-0.1,0.2-0.3,0.3-0.4c0.3-0.3,0.5-0.7,0.7-1c0.1-0.2,0.2-0.3,0.3-0.5
		c0.1-0.2,0.3-0.5,0.4-0.7c0.1-0.2,0.2-0.4,0.3-0.6c0.1-0.2,0.2-0.5,0.3-0.7c0.1-0.2,0.2-0.4,0.2-0.6c0.1-0.3,0.3-0.7,0.4-1.1
		c0.1-0.2,0.1-0.4,0.2-0.6c0.1-0.3,0.2-0.7,0.2-1c0-0.2,0.1-0.4,0.1-0.5c0.1-0.3,0.1-0.7,0.1-1c0-0.2,0-0.3,0.1-0.5
		c0-0.5,0.1-1,0.1-1.5c0-0.6,0-1.2-0.1-1.8c0-0.2-0.1-0.4-0.1-0.5c-0.1-0.4-0.1-0.8-0.2-1.2c0-0.2-0.1-0.4-0.1-0.6
		c-0.1-0.4-0.2-0.8-0.3-1.1c-0.1-0.2-0.1-0.4-0.2-0.6c-0.1-0.4-0.3-0.8-0.5-1.1C43.5,9.1,43.4,9,43.4,8.9z M30,2.5
		c4.3,0.1,8.2,2.4,10.3,6l0,0.1c0,0,0,0.1,0.1,0.1c0.3,0.5,0.5,1,0.8,1.5c0,0.1,0.1,0.2,0.1,0.3c0.2,0.5,0.4,1.1,0.6,1.7
		c0,0.1,0,0.1,0,0.2c0.1,0.5,0.2,1.1,0.3,1.6c0,0.1,0,0.3,0.1,0.4c0.1,0.6,0.1,1.2,0.1,1.8c0,0.4,0,0.9-0.1,1.3
		c0,0.2,0,0.3-0.1,0.4c0,0.3-0.1,0.5-0.1,0.8c0,0.2-0.1,0.4-0.1,0.5c0,0.2-0.1,0.5-0.2,0.7c0,0.2-0.1,0.4-0.1,0.5
		c-0.1,0.2-0.1,0.4-0.2,0.7c-0.1,0.2-0.1,0.3-0.2,0.5c-0.1,0.3-0.2,0.5-0.3,0.8c-0.1,0.2-0.2,0.4-0.3,0.7c-0.1,0.2-0.2,0.4-0.4,0.6
		c-0.1,0.2-0.2,0.3-0.3,0.5c-0.1,0.2-0.2,0.4-0.4,0.5c-0.1,0.2-0.2,0.3-0.3,0.5c-0.1,0.2-0.2,0.3-0.4,0.5c-0.1,0.2-0.3,0.3-0.4,0.4
		s-0.3,0.3-0.4,0.4c-0.2,0.1-0.3,0.3-0.5,0.4c-0.1,0.1-0.2,0.2-0.3,0.2c-0.7,0.6-1.5,1.1-2.4,1.5h0c-0.3,0.2-0.6,0.3-0.9,0.4l0,0
		c-0.3,0.1-0.6,0.2-1,0.3c-2.1,0.6-4.3,0.6-6.3,0c-0.3-0.1-0.7-0.2-1-0.3l0,0c-0.3-0.1-0.6-0.3-0.9-0.4h0c-0.8-0.4-1.6-0.9-2.4-1.5
		c-0.1-0.1-0.2-0.2-0.3-0.2c-0.2-0.1-0.3-0.3-0.5-0.4c-0.1-0.1-0.3-0.3-0.4-0.4c-0.1-0.1-0.3-0.3-0.4-0.4c-0.1-0.2-0.3-0.3-0.4-0.5
		c-0.1-0.2-0.2-0.3-0.3-0.5c-0.1-0.2-0.2-0.3-0.4-0.5c-0.1-0.2-0.2-0.3-0.3-0.5c-0.1-0.2-0.2-0.4-0.4-0.6c-0.1-0.2-0.2-0.4-0.3-0.7
		c-0.1-0.3-0.2-0.5-0.3-0.8c-0.1-0.2-0.1-0.3-0.2-0.5c-0.1-0.2-0.2-0.4-0.2-0.7C18.1,20.4,18,20.2,18,20c-0.1-0.2-0.1-0.5-0.2-0.7
		c0-0.2-0.1-0.3-0.1-0.5c0-0.3-0.1-0.5-0.1-0.8c0-0.2,0-0.3-0.1-0.4c0-0.4-0.1-0.9-0.1-1.3c0-0.6,0-1.2,0.1-1.8
		c0-0.1,0-0.3,0.1-0.4c0.1-0.5,0.2-1.1,0.3-1.6c0,0,0-0.1,0-0.1c0.2-0.6,0.4-1.1,0.6-1.7c0-0.1,0.1-0.2,0.1-0.3
		c0.2-0.5,0.5-1,0.8-1.5c0,0,0-0.1,0.1-0.1l0-0.1C21.8,4.9,25.7,2.6,30,2.5L30,2.5z M15,8.7c0.5,0,1.1,0,1.6,0.1
		c-0.1,0.1-0.1,0.2-0.1,0.4c-0.2,0.4-0.3,0.7-0.5,1.1c-0.1,0.2-0.1,0.4-0.2,0.6c-0.1,0.4-0.2,0.8-0.3,1.1c0,0.2-0.1,0.4-0.1,0.6
		c-0.1,0.4-0.2,0.8-0.2,1.2c0,0.2-0.1,0.3-0.1,0.5C15,15,15,15.6,15,16.3c0,0.5,0,1,0.1,1.5c0,0.2,0,0.3,0.1,0.5
		c0,0.3,0.1,0.7,0.1,1c0,0.2,0.1,0.4,0.1,0.5c0.1,0.3,0.2,0.7,0.2,1c0.1,0.2,0.1,0.4,0.2,0.6c0.1,0.4,0.2,0.7,0.4,1.1
		c0.1,0.2,0.2,0.4,0.2,0.6c0.1,0.2,0.2,0.5,0.3,0.7c0.1,0.2,0.2,0.4,0.3,0.6c0.1,0.2,0.3,0.5,0.4,0.7c0.1,0.2,0.2,0.3,0.3,0.5
		c0.2,0.4,0.5,0.7,0.7,1c0.1,0.1,0.2,0.3,0.3,0.4c0.2,0.2,0.3,0.4,0.5,0.6c0.1,0.1,0.3,0.3,0.4,0.4c0.2,0.2,0.4,0.4,0.6,0.5
		c0.1,0.1,0.3,0.3,0.4,0.4c0.2,0.2,0.5,0.4,0.8,0.6s0.5,0.4,0.8,0.6c0.2,0.1,0.3,0.2,0.5,0.3c0.2,0.1,0.5,0.3,0.7,0.4
		c0.1,0.1,0.2,0.1,0.4,0.2c0.3,0.1,0.5,0.3,0.8,0.4c0,0,0,0,0,0c-2.2,3-5.8,4.8-9.5,4.9c-6.9,0-12.5-6.2-12.5-13.7S8.1,8.7,15,8.7z"/>
</svg>
