<?xml version="1.0" encoding="utf-8"?>
<svg version="1.1" xmlns="http://www.w3.org/2000/svg" viewBox="0 0 59 60" fill="#FD7B00">
	<path d="M46.5,20.1v-5c0-0.4-0.2-0.7-0.5-0.9c-3.7-2-7.7-3.3-11.8-3.8c-4.1-0.5-8.2-0.1-12.1,1c-2.3,0.7-4.5,1.6-6.5,2.7
		c-0.3,0.2-0.5,0.5-0.5,0.9v5c0.5-0.3,1-0.6,1.5-0.9c-1.3-0.7-2.5-1.3-3.8-1.9l-6.1-3.1c-0.5-0.2-0.9-0.5-1.4-0.7v1.7
		c0.9-0.4,1.7-0.9,2.6-1.3c2.1-1.1,4.1-2.1,6.2-3.2c2.5-1.3,5-2.6,7.5-3.8L28,3.5c1-0.5,2.1-1,3.2-1.6c0,0,0,0,0,0h-1
		c0.9,0.4,1.7,0.9,2.6,1.3c2.1,1.1,4.1,2.1,6.2,3.2c2.5,1.3,5,2.6,7.5,3.8l6.5,3.3c1,0.5,2.1,1.1,3.2,1.6c0,0,0,0,0,0v-1.7
		c-1.3,0.7-2.5,1.3-3.8,1.9c-2,1-4.1,2.1-6.1,3.1c-0.5,0.2-0.9,0.5-1.4,0.7c-0.5,0.3-0.6,0.9-0.4,1.4c0.3,0.5,0.9,0.6,1.4,0.4
		c1.3-0.7,2.5-1.3,3.8-1.9c2-1,4.1-2.1,6.1-3.1c0.5-0.2,0.9-0.5,1.4-0.7c0.3-0.2,0.5-0.5,0.5-0.9s-0.2-0.7-0.5-0.9
		c-0.9-0.4-1.7-0.9-2.6-1.3c-2.1-1.1-4.2-2.1-6.2-3.2c-2.5-1.3-5-2.6-7.6-3.9c-2.2-1.1-4.3-2.2-6.5-3.3c-1-0.5-2.1-1.1-3.1-1.6
		c-0.5-0.2-1-0.1-1.4,0.2l-1.6,0.8c-2,1-3.9,2-5.9,3c-2.5,1.3-5,2.6-7.5,3.8c-2.3,1.2-4.5,2.3-6.8,3.5c-1.2,0.6-2.5,1.3-3.7,1.9
		c-0.1,0-0.1,0.1-0.2,0.1c-0.3,0.2-0.5,0.5-0.5,0.9s0.2,0.7,0.5,0.9c1.3,0.7,2.5,1.3,3.8,1.9l6.1,3.1c0.5,0.2,0.9,0.5,1.4,0.7
		c0.3,0.2,0.7,0.2,1,0s0.5-0.5,0.5-0.9v-5c-0.2,0.3-0.3,0.6-0.5,0.9c6.8-3.8,14.9-4.7,22.4-2.5c2.1,0.6,4.1,1.5,6.1,2.5
		c-0.2-0.3-0.3-0.6-0.5-0.9v5c0,0.6,0.5,1,1,1C46,21.1,46.5,20.6,46.5,20.1z"/>
	<path d="M44.5,15.1v13.6l1-1H19.6c-1.2,0-2.4-0.1-3.6,0H16c0.3,0.3,0.7,0.7,1,1V15.1c-0.2,0.3-0.3,0.6-0.5,0.9
		c6.8-3.8,14.9-4.7,22.4-2.5c2.1,0.6,4.1,1.5,6.1,2.5c0.3,0.2,0.7,0.2,1,0c0.3-0.2,0.5-0.5,0.5-0.9c0-0.4-0.2-0.7-0.5-0.9
		c-3.7-2-7.7-3.3-11.8-3.8c-4.1-0.5-8.2-0.1-12.1,1c-2.3,0.7-4.5,1.6-6.5,2.7c-0.3,0.2-0.5,0.5-0.5,0.9v13.6c0,0.6,0.5,1,1,1h25.8
		c1.2,0,2.4,0,3.6,0h0.1c0.6,0,1-0.5,1-1V15.1c0-0.6-0.5-1-1-1S44.5,14.5,44.5,15.1L44.5,15.1z M3.7,14.3v8.6c0,0.5,0.5,1,1,1
		s1-0.4,1-1v-8.6c0-0.5-0.5-1-1-1S3.7,13.7,3.7,14.3 M56.7,47.5v10.6c0,0,0,0.2,0,0.2c-0.1-0.1,0.2-0.4,0.4-0.4c0,0,0,0-0.1,0
		c-0.9,0-1.8,0-2.7,0H9c-0.9,0-1.8,0-2.8,0c0,0,0,0-0.1,0c0.1,0,0.5,0.3,0.4,0.4c0.1,0,0-0.5,0-0.6v-10c0-0.1,0-0.2,0-0.2
		c0.1,0.1-0.3,0.4-0.4,0.4c0,0,0,0,0.1,0c0.1,0,0.2,0,0.3,0H57c0,0,0,0,0.1,0C57,47.9,56.7,47.7,56.7,47.5c0,0.5,0.5,1,1,1
		s1-0.4,1-1c0-0.9-0.8-1.6-1.7-1.6H6.2c-0.9,0-1.6,0.7-1.7,1.6c0,0.8,0,1.5,0,2.3v8c0,0.2,0,0.4,0,0.6C4.6,59.3,5.3,60,6.2,60
		c0.3,0,0.5,0,0.8,0h49.3c0.2,0,0.5,0,0.8,0c0.9,0,1.6-0.7,1.7-1.6c0-0.2,0-0.5,0-0.7V47.5c0-0.6-0.5-1-1-1
		C57.1,46.5,56.7,47,56.7,47.5z"/>
	<path d="M51.5,37.4v8.1c0,0.2,0,0.5,0,0.7c-0.1-0.1,0.3-0.5,0.4-0.4c0,0-0.1,0-0.1,0c-0.1,0-0.2,0-0.3,0H4.3c-0.8,0-1.7,0-2.6,0
		c0,0,0,0-0.1,0c0.1-0.1,0.5,0.3,0.4,0.4c0.1-0.1,0-0.6,0-0.7v-7.9c0,0,0-0.2,0-0.2c0.1,0.1-0.3,0.4-0.4,0.4c0,0,0,0,0.1,0
		c0.8,0,1.7,0,2.5,0h47.2c0.1,0,0.2,0,0.3,0c0,0,0,0,0.1,0C51.7,37.8,51.5,37.6,51.5,37.4c0,0.5,0.5,1,1,1s1-0.4,1-1
		c0-0.9-0.8-1.6-1.7-1.6H2.4c-0.2,0-0.5,0-0.7,0c-0.9,0-1.6,0.7-1.7,1.6c0,0.2,0,0.5,0,0.7v7.5c0,0.2,0,0.5,0,0.7
		c0.1,0.9,0.8,1.5,1.7,1.5c0.3,0,0.5,0,0.8,0h49.4c0.9,0,1.6-0.7,1.7-1.6c0-0.8,0-1.6,0-2.4v-6.4c0-0.4-0.2-0.7-0.5-0.9
		c-0.3-0.2-0.7-0.2-1,0C51.7,36.7,51.5,37.1,51.5,37.4L51.5,37.4z M12.6,51.6c0.1,0,0.1,0,0.2,0c0,0-0.2,0,0,0
		c0.1,0,0.2,0.1,0.3,0.1c0.2,0-0.1-0.1,0.1,0c0.1,0.1,0.2,0.1,0.3,0.2c-0.2-0.1,0,0,0.1,0.1c0.1,0.1,0.1,0.1,0.2,0.2
		c-0.1-0.1,0,0,0,0.1c0,0.1,0.1,0.3,0.1,0.2c0,0.1,0.1,0.2,0.1,0.3c0,0,0,0.1,0,0.1c0,0,0-0.2,0,0c0,0.1,0,0.2,0,0.3
		c0-0.2,0,0.1,0,0.2c0,0.1,0,0.1-0.1,0.2c0,0,0.1-0.1,0,0c0,0.1-0.1,0.2-0.1,0.3c-0.1,0.2,0.1-0.1,0,0.1c-0.1,0.1-0.2,0.2-0.2,0.2
		c0,0-0.1,0.1,0,0c0,0-0.1,0-0.1,0.1c-0.1,0-0.2,0.1-0.3,0.1c0.2-0.1,0,0-0.1,0s-0.4,0-0.2,0c-0.1,0-0.2,0-0.3,0s0,0,0,0
		c-0.1,0-0.1,0-0.2,0c-0.1,0-0.2,0-0.3-0.1c0.2,0.1-0.1,0-0.2-0.1c-0.1,0-0.1-0.1-0.1-0.1c0,0,0.1,0.1,0,0
		c-0.1-0.1-0.1-0.1-0.2-0.2c0-0.1-0.1-0.2-0.1-0.1c-0.1-0.1-0.1-0.2-0.2-0.3c0,0-0.1-0.2,0,0c0,0,0-0.1,0-0.1
		c0-0.1-0.1-0.2-0.1-0.3c0,0.2,0,0,0-0.1c0-0.1,0-0.1,0-0.2c0,0.1,0,0.1,0,0c0-0.1,0.1-0.2,0.1-0.3c-0.1,0.2,0-0.1,0.1-0.2
		c0,0,0-0.1,0.1-0.1c0.1-0.1-0.1,0.1,0,0c0.1-0.1,0.2-0.2,0.2-0.2c0,0,0.1-0.1,0,0c-0.1,0.1,0.1-0.1,0.1-0.1c0,0,0.1,0,0.1-0.1
		c0,0,0.2-0.1,0.1,0c-0.1,0,0.1,0,0.1,0c0.1,0,0.1,0,0.2,0C12.5,51.6,12.5,51.6,12.6,51.6C12.3,51.6,12.6,51.6,12.6,51.6
		c0.6,0,1-0.5,1-1c0-0.6-0.5-1-1-1c-1.4,0-2.7,0.9-3.2,2.3c-0.4,1.3-0.1,2.8,1,3.7c1.1,1,2.8,1.1,4,0.3s1.8-2.3,1.4-3.8
		c-0.4-1.4-1.7-2.4-3.2-2.4c-0.6,0-1,0.5-1,1C11.7,51.1,12.1,51.6,12.6,51.6z"/>
	<path d="M51.3,59V46.9c0-0.5-0.5-1-1-1s-1,0.4-1,1V59c0,0.5,0.5,1,1,1S51.2,59.5,51.3,59 M6.7,36.8v10.1c0,0.5,0.5,1,1,1
		s1-0.4,1-1V36.8c0-0.5-0.5-1-1-1S6.7,36.2,6.7,36.8 M46.8,46.9V36.8c0-0.5-0.5-1-1-1s-1,0.4-1,1v10.1c0,0.5,0.5,1,1,1
		S46.8,47.4,46.8,46.9"/>
</svg>
