<?xml version="1.0" encoding="utf-8"?>
<svg version="1.1" xmlns="http://www.w3.org/2000/svg" viewBox="0 0 75 60" fill="#FD7B00">
	<path d="M39.7,15.9c-0.5,0-1-0.4-1.1-0.9c-0.1-0.5,0.1-1,0.6-1.2l20.3-9.4c0.5-0.2,1.2,0,1.4,0.5s0,1.2-0.5,1.4l-20.3,9.4
		C40,15.9,39.8,15.9,39.7,15.9z M67.7,25.6c-1.4,0-2.7-0.2-4-0.7c-1.2-0.5-2.5-0.7-3.8-0.6c-1.2,0-2.4,0.2-3.5,0.6
		c-1.3,0.4-2.6,0.6-4,0.7c-1.9,0.1-3.1,0-4.2,0s-2.1-0.1-4,0c-0.3,0-0.6-0.1-0.8-0.3c-0.2-0.2-0.3-0.5-0.4-0.8
		c0-0.6,0.4-1.1,1-1.2c1.9-0.1,3.1,0,4.2,0s2.2,0.1,4,0l0,0c1.2,0,2.4-0.2,3.5-0.6c1.3-0.4,2.6-0.6,4-0.7c1.6-0.1,3.1,0.2,4.6,0.7
		c1.2,0.5,2.5,0.7,3.8,0.6c0.3,0,0.6,0.1,0.8,0.3c0.2,0.2,0.3,0.5,0.4,0.8c0,0.6-0.4,1.1-1,1.1L67.7,25.6z M39.3,9.7
		c-0.3,0-0.5-0.1-0.7-0.3c-0.4-0.4-0.5-1.1-0.1-1.5l3.6-4.1c0.4-0.5,1.1-0.5,1.6-0.1s0.5,1.1,0.1,1.6l-3.6,4.1
		C39.9,9.5,39.6,9.7,39.3,9.7L39.3,9.7z M33.5,7.7c-0.5,0-0.9-0.3-1.1-0.8l-1.7-5.5l0,0c-0.1-0.4,0-0.8,0.3-1.1s0.7-0.4,1.1-0.3
		c0.4,0.1,0.7,0.4,0.8,0.8l1.7,5.5c0.2,0.6-0.2,1.2-0.7,1.4L33.5,7.7z M29.9,12.6c-0.1,0-0.3,0-0.4-0.1l-6-2.3
		c-0.3-0.1-0.5-0.3-0.6-0.6S22.9,9,23,8.7c0.1-0.3,0.3-0.5,0.6-0.6c0.3-0.1,0.6-0.1,0.9,0l6,2.3c0.3,0.1,0.5,0.3,0.6,0.6
		c0.1,0.3,0.1,0.6,0,0.9C30.8,12.3,30.4,12.6,29.9,12.6z"/>
	<path d="M57.2,38.2c-1.4,0-2.9-0.3-4.2-0.7c-3-1.1-5.5-3.4-6.8-6.3l-7.5-15.8c-0.2-0.6,0-1.2,0.5-1.5c0.3-0.1,0.6-0.1,0.8,0
		c0.3,0.1,0.5,0.3,0.6,0.6l7.4,15.8l0,0c1.5,3.3,4.7,5.5,8.2,5.8c3.6,0.3,7.1-1.3,9.1-4.3c2.1-2.9,2.4-6.8,0.9-10L59,5.9
		c-0.2-0.5,0-1.2,0.6-1.4c0.5-0.2,1.2,0,1.4,0.5l7.3,15.8l0,0c1.8,3.8,1.5,8.2-0.8,11.8S61.4,38.2,57.2,38.2L57.2,38.2z"/>
	<path d="M68.1,50.5c-0.4,0-0.8-0.2-1-0.6l-6.3-13.4c-0.2-0.4-0.1-0.9,0.2-1.2s0.8-0.4,1.2-0.3c0.3,0.1,0.5,0.3,0.6,0.6l6.3,13.5
		c0.2,0.3,0.2,0.8,0,1.1C68.9,50.5,68.5,50.7,68.1,50.5L68.1,50.5z"/>
	<polyline points="61.2,51.5 73.8,45.7 73.8,45.7 74.8,47.6 62.1,53.5 			"/>
	<path d="M35.1,22.4c-0.2,0-0.3,0-0.5-0.1l-20.3-9.4c-0.5-0.3-0.8-0.9-0.5-1.4c0.3-0.5,0.9-0.8,1.4-0.5l20.3,9.4l0,0
		c0.5,0.2,0.7,0.7,0.6,1.2S35.6,22.4,35.1,22.4L35.1,22.4z M29.9,32.3c-1.3,0-2.7-0.3-3.9-1c-1-0.6-2.2-0.8-3.4-0.7
		c-1.2,0.1-2.5,0.3-3.7,0.7c-1.3,0.5-2.7,0.7-4.2,0.8c-1.4,0.1-2.8,0-4.2-0.2c-1.2-0.2-2.5-0.3-3.7-0.2c-0.6,0-1.1-0.4-1.2-1
		c0-0.3,0.1-0.6,0.3-0.8c0.2-0.2,0.5-0.3,0.8-0.4c1.4-0.1,2.8,0,4.2,0.2c1.2,0.2,2.5,0.3,3.7,0.2c1.2-0.1,2.5-0.3,3.7-0.7
		c1.4-0.4,2.8-0.7,4.2-0.8c1.6-0.1,3.1,0.2,4.5,1c1,0.6,2.2,0.9,3.4,0.7c0.6,0,1.1,0.4,1.1,1c0,0.6-0.4,1.1-1,1.2L29.9,32.3z"/>
	<path d="M17.6,44.7c-1.8,0-3.5-0.4-5.2-1.2c-6.1-2.9-8.8-10.1-5.9-16.2l7.3-15.8c0.3-0.5,0.9-0.8,1.5-0.5
		c0.5,0.3,0.8,0.9,0.5,1.4L8.5,28.2c-2.3,5-0.2,11,4.9,13.4c5,2.3,11,0.2,13.4-4.9L34,20.9l0,0c0.1-0.3,0.3-0.5,0.6-0.6
		s0.6-0.1,0.8,0.1c0.3,0.1,0.5,0.3,0.6,0.6c0.1,0.3,0.1,0.6,0,0.8l-7.3,15.8c-1.4,2.9-3.8,5.2-6.9,6.3
		C20.4,44.5,19,44.7,17.6,44.7z"/>
	<path d="M6.7,57.1c-0.2,0-0.3,0-0.5-0.1c-0.3-0.1-0.5-0.3-0.6-0.6c-0.1-0.3-0.1-0.6,0-0.8l6.3-13.4c0.1-0.3,0.3-0.5,0.6-0.6
		c0.3-0.1,0.6-0.1,0.8,0c0.5,0.3,0.8,0.9,0.5,1.5L7.6,56.4C7.4,56.8,7.1,57,6.7,57.1z"/>
	<polygon points="12.6,60 0,54.2 0,54.2 0.9,52.2 13.6,58 13.6,58"/>
</svg>
