<?xml version="1.0" encoding="utf-8"?>
<svg version="1.1" xmlns="http://www.w3.org/2000/svg" viewBox="0 0 55 60" fill="#FD7B00">
	<path d="M13,18.4H8.1l6.7,15.7l20.7-9.2l7-23.8c0.1-0.4,0.5-0.6,0.9-0.6h10.7v1.8H44.1l-6.8,23l7.7,9c1.9,2.2,2.4,5.2,1.5,7.9
		l-5.8,16.7c-0.1,0.4-0.5,0.6-0.8,0.6H9.4c-0.4,0-0.8-0.3-0.9-0.6l-2.4-8.3c-1.8-6.3,1.2-12.9,7-15.7l-7-16.4H0.5v-1.8H13
		 M39.2,57.7l5.6-16.1c0.7-2.1,0.3-4.4-1.2-6.1L36,26.6l-21.6,9.6c-5.3,2.4-8,8.2-6.5,13.8l2.2,7.7H39.2z M27.3,36.3h8.9V38h-3.1
		l-3.7,5.2c1.9,2,2,5.2,0.1,7.2c-1.8,2.1-5,2.4-7.2,0.7c-2.2-1.7-2.8-4.8-1.3-7.1c1.5-2.4,4.5-3.2,7-1.9l3-4.2h-3.6 M25.5,50.6
		c2,0,3.6-1.6,3.6-3.6c0-2-1.6-3.6-3.6-3.6c-2,0-3.6,1.6-3.6,3.6c0,0.9,0.4,1.9,1,2.5S24.6,50.6,25.5,50.6"/>
	<path d="M39.8,60H9.4c-0.6,0-1.2-0.4-1.3-1l-2.4-8.3c-1.8-6.3,1-13,6.8-16.1L5.8,18.9H0v-2.8h13v1H1v0.8h5.5L13.8,35l-0.4,0.2
		C7.8,38,4.9,44.4,6.7,50.4L9,58.7c0,0.2,0.2,0.3,0.4,0.3h30.4c0.2,0,0.3-0.1,0.4-0.3L46,42.1c0.9-2.5,0.3-5.4-1.4-7.4l-7.9-9.2
		l0.1-0.3l6.9-23.4h9.9V1H43.4c-0.2,0-0.3,0.1-0.4,0.3l-7.1,24l-21.3,9.5L7.4,17.9H13v1H8.8l6.2,14.6l20-8.9l7-23.5
		c0.2-0.6,0.7-1,1.3-1h11.2v2.8H44.4l-6.6,22.4l7.6,8.8c2,2.3,2.6,5.5,1.6,8.4l-5.8,16.7C40.9,59.6,40.4,60,39.8,60 M39.5,58.2H9.7
		l-2.3-8c-1.6-5.8,1.2-11.9,6.7-14.4l22-9.8l7.9,9.2c1.6,1.8,2,4.3,1.3,6.6L39.5,58.2z M10.5,57.2h28.4l5.5-15.8
		c0.7-1.9,0.3-4.1-1.1-5.7l-7.4-8.6l-21.3,9.5C9.5,39,6.9,44.6,8.4,49.9L10.5,57.2z M25.5,52.8c-3.2,0-5.9-2.6-5.9-5.9
		c0-3.2,2.6-5.9,5.9-5.9c0.8,0,1.6,0.2,2.3,0.5l2.2-3.1h-2.7v-1h4.6l-3.8,5.3l-0.4-0.2c-0.7-0.4-1.4-0.5-2.2-0.5
		c-2.3,0-4.3,1.6-4.8,3.9c-0.5,2.3,0.7,4.6,2.9,5.5c2.1,0.9,4.6,0.2,5.9-1.7s1.1-4.5-0.5-6.1l-0.3-0.3l4.1-5.8h2.9v-0.8h-8.5v-1
		h9.4v2.8h-3.3L30,43.2c1.5,1.7,1.8,4.2,0.8,6.2S27.8,52.8,25.5,52.8 M25.5,51.1c-2.2,0-4.1-1.8-4.1-4.1c0-2.2,1.8-4.1,4.1-4.1
		c2.2,0,4.1,1.8,4.1,4.1C29.6,49.2,27.8,51.1,25.5,51.1 M25.5,43.9c-1.7,0-3.1,1.4-3.1,3.1c0,1.7,1.4,3.1,3.1,3.1
		c1.7,0,3.1-1.4,3.1-3.1C28.6,45.3,27.2,43.9,25.5,43.9"/>
</svg>
